<svg xmlns="http://www.w3.org/2000/svg" xmlns:xlink="http://www.w3.org/1999/xlink" xmlns:lucid="lucid" width="1692" height="1220"><g transform="translate(-8 -80)" lucid:page-tab-id="0_0"><path d="M0 0h1760v1360H0z" fill="#fff"/><path d="M160 162c0-16.57 13.43-30 30-30h1460c16.57 0 30 13.43 30 30v1088c0 16.57-13.43 30-30 30H190c-16.57 0-30-13.43-30-30z" stroke="#474747" fill-opacity="0"/><path d="M268 134.4v3.54c0 6.42-7.1 13.05-15.76 13.05h-46.48c-8.66 0-15.75-6.64-15.75-13.06v-3.54z" fill="#9d5125"/><path d="M220.03 100c8.03 0 14.82 4.4 18.17 11.67 4.6-3.14 10.92-1.98 14.04 2.65 1.17 1.64 1.7 3.32 1.8 5.3 7.87.68 13.95 8.25 13.95 14.27v1.3c0 6.45-7.1 13-15.76 13h-46.5c-8.64 0-15.74-6.55-15.74-13v-1.3c0-5.02 4.2-11.87 10.06-13.56v-.57c.08-10.95 8.97-19.82 19.97-19.77z" fill="#f58535"/><path d="M209.54 123.13l-5.2 18.2h3.04l1.17-4.43h5.38l1.1 4.43h3.05l-4.8-18.2zm-.47 11.4l2.22-8.98 2.1 8.97zM231.2 137.34h-.03l-2.47-14.2h-3.1l-2.4 14.13h-.06l-2.4-14.14h-2.95l3.53 18.2h3.38l2.35-13.7h.06l2.36 13.7h3.4l3.64-18.2h-2.9l-2.4 14.2zM245.9 131.4l-1.98-.72c-1.93-.7-2.74-1.53-2.74-3.1-.17-1.26.74-2.43 2-2.6.16-.02.3-.02.45-.02 1.26-.17 2.4.72 2.58 1.96.04.25.03.44 0 .68v.38h2.93v-.4c0-1.9-.5-4.8-5.18-4.8-3.44 0-5.7 1.84-5.7 5.16 0 2.6 1.1 3.97 3.82 5l2 .68c1.6.23 2.73 1.6 2.64 3.2.04 1.45-1.08 2.64-2.5 2.68h-.28c-2 0-3-1.12-3-3.33v-.47h-2.9v.44c0 2.54 1.02 5.53 5.52 5.53 3.7 0 6.07-1.6 6.07-5.48.04-2.5-1.1-3.9-3.7-4.8z" fill="#fff"/><use xlink:href="#a" transform="matrix(1,0,0,1,160,1250) translate(705.5246913580247 11.11111111111111)"/><use xlink:href="#b" transform="matrix(1,0,0,1,160,1250) translate(761.4506172839506 11.11111111111111)"/><path d="M440 246c0-3.3 2.7-6 6-6h1071.82c3.3 0 6 2.7 6 6v444c0 3.3-2.7 6-6 6H446c-3.3 0-6-2.7-6-6z" fill="#fff" fill-opacity="0"/><path d="M463.86 240h11.9m11.92 0h11.9m11.92 0h11.9m11.92 0h11.9m11.92 0h11.9m11.9 0h11.92m11.9 0h11.92m11.9 0h11.92m11.9 0h11.92m11.9 0h11.92m11.9 0h11.9m11.92 0h11.9m11.92 0h11.9m11.92 0h11.9m11.92 0h11.9m11.92 0h11.9m11.9 0h11.92m11.9 0h11.92m11.9 0h11.92m11.9 0h11.92m11.9 0h11.92m11.9 0h11.9m11.92 0h11.9m11.92 0h11.9m11.92 0h11.9m11.92 0h11.9m11.92 0h11.9m11.9 0h11.92m11.9 0h11.92m11.9 0h11.92m11.9 0h11.92m11.9 0h11.92m11.9 0h11.9m11.92 0h11.9m11.92 0h11.9m11.92 0h11.9m11.92 0h11.9m11.92 0h11.9m11.9 0h11.92m11.9 0h11.92m11.9 0h11.92m11.9 0h11.92m11.9 0h11.92m11.9 0h11.9m11.92 0h5.96l3.03.82 2.15 2.15.82 3.03v6.17m0 12.33v12.33m0 12.34v12.33m0 12.33v12.34m0 12.33v12.33m0 12.34v12.33m0 12.33v12.34m0 12.33v12.33m0 12.34v12.33m0 12.33v12.34m0 12.33v12.33m0 12.34v12.33m0 12.33v12.34m0 12.33v12.33m0 12.34v12.33m0 12.33v12.34m0 12.33v12.33m0 12.34v12.33m0 12.33V690l-.82 3.03-2.15 2.15-3.03.82h-5.96m-11.9 0h-11.92m-11.9 0h-11.9m-11.92 0h-11.9m-11.92 0h-11.9m-11.92 0h-11.9m-11.92 0h-11.9m-11.92 0h-11.9m-11.9 0h-11.92m-11.9 0h-11.92m-11.9 0h-11.92m-11.9 0h-11.92m-11.9 0h-11.92m-11.9 0h-11.9m-11.92 0h-11.9m-11.92 0h-11.9m-11.92 0h-11.9m-11.92 0h-11.9m-11.92 0h-11.9m-11.9 0h-11.92m-11.9 0h-11.92m-11.9 0h-11.92m-11.9 0h-11.92m-11.9 0h-11.92m-11.9 0h-11.9m-11.92 0h-11.9m-11.92 0h-11.9m-11.92 0h-11.9m-11.92 0h-11.9m-11.9 0h-11.92m-11.9 0H797.3m-11.9 0H773.5m-11.9 0h-11.92m-11.9 0h-11.92m-11.9 0h-11.9m-11.92 0h-11.9m-11.92 0h-11.9m-11.92 0h-11.9m-11.92 0h-11.9m-11.92 0h-11.9m-11.9 0h-11.92m-11.9 0H535.3m-11.9 0H511.5m-11.9 0h-11.92m-11.9 0h-11.92m-11.9 0H446l-3.03-.82-2.15-2.15L440 690v-6.17m0-12.33v-12.33m0-12.34V634.5m0-12.33v-12.34m0-12.33v-12.33m0-12.34V560.5m0-12.33v-12.34m0-12.33v-12.33m0-12.34V486.5m0-12.33v-12.34m0-12.33v-12.33m0-12.34V412.5m0-12.33v-12.34m0-12.33v-12.33m0-12.34V338.5m0-12.33v-12.34m0-12.33v-12.33m0-12.34V264.5m0-12.33V246l.82-3.03 2.15-2.15L446 240h5.95" stroke="#147eba" stroke-width="3" fill="none"/><use xlink:href="#c" transform="matrix(1,0,0,1,440,260.00000000000006) translate(476.825 14.4)"/><use xlink:href="#d" transform="matrix(1,0,0,1,440,260.00000000000006) translate(566.225 14.4)"/><path d="M440 750c0-3.3 2.7-6 6-6h1071.82c3.3 0 6 2.7 6 6v444c0 3.3-2.7 6-6 6H446c-3.3 0-6-2.7-6-6z" fill="#fff" fill-opacity="0"/><path d="M463.86 744h11.9m11.92 0h11.9m11.92 0h11.9m11.92 0h11.9m11.92 0h11.9m11.9 0h11.92m11.9 0h11.92m11.9 0h11.92m11.9 0h11.92m11.9 0h11.92m11.9 0h11.9m11.92 0h11.9m11.92 0h11.9m11.92 0h11.9m11.92 0h11.9m11.92 0h11.9m11.9 0h11.92m11.9 0h11.92m11.9 0h11.92m11.9 0h11.92m11.9 0h11.92m11.9 0h11.9m11.92 0h11.9m11.92 0h11.9m11.92 0h11.9m11.92 0h11.9m11.92 0h11.9m11.9 0h11.92m11.9 0h11.92m11.9 0h11.92m11.9 0h11.92m11.9 0h11.92m11.9 0h11.9m11.92 0h11.9m11.92 0h11.9m11.92 0h11.9m11.92 0h11.9m11.92 0h11.9m11.9 0h11.92m11.9 0h11.92m11.9 0h11.92m11.9 0h11.92m11.9 0h11.92m11.9 0h11.9m11.92 0h5.96l3.03.82 2.15 2.15.82 3.03v6.17m0 12.33v12.33m0 12.34v12.33m0 12.33v12.34m0 12.33v12.33m0 12.34v12.33m0 12.33v12.34m0 12.33v12.33m0 12.34v12.33m0 12.33v12.34m0 12.33v12.33m0 12.34v12.33m0 12.33v12.34m0 12.33v12.33m0 12.34v12.33m0 12.33v12.34m0 12.33v12.33m0 12.34v12.33m0 12.33v6.17l-.82 3.03-2.15 2.15-3.03.82h-5.96m-11.9 0h-11.92m-11.9 0h-11.9m-11.92 0h-11.9m-11.92 0h-11.9m-11.92 0h-11.9m-11.92 0h-11.9m-11.92 0h-11.9m-11.9 0h-11.92m-11.9 0h-11.92m-11.9 0h-11.92m-11.9 0h-11.92m-11.9 0h-11.92m-11.9 0h-11.9m-11.92 0h-11.9m-11.92 0h-11.9m-11.92 0h-11.9m-11.92 0h-11.9m-11.92 0h-11.9m-11.9 0h-11.92m-11.9 0h-11.92m-11.9 0h-11.92m-11.9 0h-11.92m-11.9 0h-11.92m-11.9 0h-11.9m-11.92 0h-11.9m-11.92 0h-11.9m-11.92 0h-11.9m-11.92 0h-11.9m-11.9 0h-11.92m-11.9 0H797.3m-11.9 0H773.5m-11.9 0h-11.92m-11.9 0h-11.92m-11.9 0h-11.9m-11.92 0h-11.9m-11.92 0h-11.9m-11.92 0h-11.9m-11.92 0h-11.9m-11.92 0h-11.9m-11.9 0h-11.92m-11.9 0H535.3m-11.9 0H511.5m-11.9 0h-11.92m-11.9 0h-11.92m-11.9 0H446l-3.03-.82-2.15-2.15-.82-3.03v-6.17m0-12.33v-12.33m0-12.34v-12.33m0-12.33v-12.34m0-12.33v-12.33m0-12.34v-12.33m0-12.33v-12.34m0-12.33v-12.33m0-12.34V990.5m0-12.33v-12.34m0-12.33v-12.33m0-12.34V916.5m0-12.33v-12.34m0-12.33v-12.33m0-12.34V842.5m0-12.33v-12.34m0-12.33v-12.33m0-12.34V768.5m0-12.33V750l.82-3.03 2.15-2.15L446 744h5.95" stroke="#147eba" stroke-width="3" fill="none"/><use xlink:href="#c" transform="matrix(1,0,0,1,440,764.0000000000002) translate(476.825 14.4)"/><use xlink:href="#d" transform="matrix(1,0,0,1,440,764.0000000000002) translate(566.225 14.4)"/><path d="M999.97 306c0-3.3 2.7-6 6-6h475.72c3.3 0 6 2.7 6 6v348c0 3.3-2.7 6-6 6h-475.73c-3.3 0-6-2.7-6-6z" fill="#147eba" fill-opacity=".13"/><path d="M999.97 300h56v56h-56v-56z" stroke="#fff" stroke-opacity="0" fill="#147eba"/><path d="M1043.35 322.18c-.15-.17-.34-.25-.56-.25h-5.16v-5.58c-.03-2.54-.96-4.7-2.83-6.4-1.9-1.84-4.14-2.75-6.77-2.75-2.65 0-4.9.83-6.8 2.62-1.9 1.7-2.87 3.87-2.9 6.4v5.66h-5.15c-.25 0-.43.1-.6.25-.15.17-.2.34-.2.6V348c0 .43.34.8.8.8h29.58c.47 0 .8-.37.8-.8v-25.28c0-.2-.05-.38-.2-.54zm-23.46-5.9c.02-2.13.8-3.88 2.36-5.3 1.63-1.5 3.53-2.2 5.74-2.2 2.22 0 4.12.75 5.7 2.25 1.54 1.4 2.32 3.2 2.32 5.32v5.58h-16.16zm22.08 30.94h-28.02v-23.7h28.02z" stroke="#fff" stroke-opacity="0" fill="#fff"/><path d="M1027.17 337.3v6.25h1.6v-6.23c2.13-.4 3.63-2.2 3.63-4.35 0-2.43-1.97-4.4-4.4-4.43-2.2-.03-4.06 1.5-4.44 3.68-.4 2.4 1.2 4.68 3.6 5.1zm.82-7.15c.77 0 1.43.27 2 .82.53.56.8 1.22.8 2 .02 1.55-1.2 2.8-2.75 2.82h-.06c-1.57.1-2.93-1.06-3.05-2.62-.1-1.56 1.05-2.93 2.6-3.03.16-.02.3-.02.44 0z" stroke="#fff" stroke-opacity="0" fill="#fff"/><use xlink:href="#e" transform="matrix(1,0,0,1,1070.9720982142856,320) translate(0 14.4)"/><use xlink:href="#f" transform="matrix(1,0,0,1,1070.9720982142856,320) translate(60.9 14.4)"/><path d="M476.13 306c0-3.3 2.68-6 6-6h475.7c3.33 0 6 2.7 6 6v348c0 3.3-2.67 6-6 6h-475.7c-3.32 0-6-2.7-6-6z" fill="#248814" fill-opacity=".13"/><path d="M476.13 300h56v56h-56v-56z" stroke="#fff" stroke-opacity="0" fill="#248814"/><path d="M519.5 322.18c-.15-.17-.33-.25-.55-.25h-5.15v-5.58c-.03-2.54-.97-4.7-2.84-6.4-1.9-1.84-4.15-2.75-6.77-2.75-2.66 0-4.9.83-6.8 2.62-1.92 1.7-2.88 3.87-2.9 6.4v5.66h-5.16c-.25 0-.44.1-.6.25-.15.17-.2.34-.2.6V348c0 .43.33.8.8.8h29.58c.46 0 .8-.37.8-.8v-25.28c0-.2-.05-.38-.2-.54zm-23.45-5.9c.03-2.13.8-3.88 2.37-5.3 1.62-1.5 3.52-2.2 5.74-2.2 2.2 0 4.12.75 5.7 2.25 1.54 1.4 2.32 3.2 2.32 5.32v5.58h-16.16zm22.1 30.94H490.1v-23.7h28.02z" stroke="#fff" stroke-opacity="0" fill="#fff"/><path d="M503.32 337.3v6.25h1.6v-6.23c2.13-.4 3.63-2.2 3.64-4.35 0-2.43-1.98-4.4-4.42-4.43-2.2-.03-4.05 1.5-4.42 3.68-.4 2.4 1.2 4.68 3.6 5.1zm.82-7.15c.8 0 1.45.27 2 .82.55.56.83 1.22.82 2 0 1.55-1.2 2.8-2.75 2.82h-.06c-1.55.1-2.92-1.06-3.03-2.62-.1-1.56 1.06-2.93 2.62-3.03.15-.02.27-.02.42 0z" stroke="#fff" stroke-opacity="0" fill="#fff"/><use xlink:href="#g" transform="matrix(1,0,0,1,547.1272321428569,320) translate(0 14.4)"/><use xlink:href="#h" transform="matrix(1,0,0,1,547.1272321428569,320) translate(53.900000000000006 14.4)"/><path d="M76.83 721.34H61.28c-.7 0-1.28-.58-1.28-1.28v-1.9c0-7.12 4.68-13.08 11.62-14.75.32-.07.6-.03.9.13 2.05 1.1 4.26 1.1 6.3 0 .3-.16.6-.2.92-.12 1.82.45 3.32 1.1 4.87 2.14l-1.42 2.12c-1.15-.75-2.24-1.25-3.6-1.6-2.57 1.17-5.23 1.17-7.82 0-5.53 1.53-9.2 6.37-9.2 12.1v.63h14.27z" stroke="#fff" stroke-opacity="0" fill="#232f3e"/><path d="M75.66 706.85c-4.63 0-8.38-3.75-8.38-8.36 0-4.63 3.75-8.37 8.38-8.37 4.62-.05 8.4 3.66 8.44 8.26.04 3.18-1.58 5.9-4.4 7.4-1.28.73-2.55 1.05-4.04 1.05zm0-14.18c-3.23 0-5.87 2.6-5.9 5.82 0 2.18 1.12 4.05 3.05 5.1 1.85.97 3.87.97 5.7 0 1.95-1.07 3.08-2.97 3.05-5.2-.04-3.2-2.68-5.75-5.9-5.7zM118.74 721.34h-15.56v-2.55h14.28v-.64c0-5.75-3.67-10.58-9.2-12.12-2.6 1.2-5.25 1.2-7.84 0-1.36.38-2.47.9-3.63 1.7l-1.46-2.1c1.55-1.07 3.06-1.76 4.88-2.22.32-.08.64-.04.94.12 2.02 1.1 4.27 1.1 6.3 0 .3-.16.6-.2.92-.12 6.93 1.67 11.62 7.63 11.62 14.74v1.9c0 .7-.57 1.26-1.26 1.28z" stroke="#fff" stroke-opacity="0" fill="#232f3e"/><path d="M104.3 706.85c-4.65 0-8.4-3.8-8.4-8.44s3.8-8.4 8.45-8.4c4.66 0 8.42 3.8 8.42 8.44 0 3.17-1.6 5.86-4.4 7.38-1.3.7-2.57 1.03-4.06 1.03zm0-14.17c-3.2-.02-5.85 2.58-5.86 5.8-.02 2.2 1.1 4.07 3.04 5.1 1.82 1 3.84 1 5.7 0 1.96-1.05 3.1-2.97 3.06-5.2-.07-3.2-2.72-5.77-5.93-5.7zM110.4 750H69.55c-.7 0-1.26-.56-1.26-1.27v-2.7c-.04-9.82 6.46-18.07 16-20.4.34-.1.65-.04.95.1 3.03 1.64 6.37 1.64 9.45 0 .26-.14.56-.2.9-.1 9.6 2.3 16.1 10.55 16.05 20.4v2.7c0 .7-.57 1.27-1.26 1.27zm-39.54-2.54h38.23v-1.44c0-8.44-5.47-15.55-13.66-17.74-3.6 1.73-7.37 1.73-10.97 0-8.2 2.2-13.6 9.3-13.6 17.74z" stroke="#fff" stroke-opacity="0" fill="#232f3e"/><path d="M90.02 729.48c-2.03 0-3.75-.43-5.54-1.4-5.57-3.05-7.62-10-4.58-15.57 3.06-5.54 10.02-7.6 15.6-4.56 5.58 3.05 7.62 10 4.6 15.58-1.12 2.02-2.56 3.46-4.6 4.56-1.76.97-3.48 1.4-5.48 1.4zm0-20.07c-3.34-.04-6.2 1.64-7.82 4.57-2.3 4.25-.74 9.57 3.52 11.9 2.76 1.46 5.8 1.46 8.55 0 2.97-1.62 4.67-4.5 4.62-7.84-.08-4.8-4.05-8.7-8.88-8.62z" stroke="#fff" stroke-opacity="0" fill="#232f3e"/><path d="M119.08 721.34h-29.8c-.5 0-.9-.4-.9-.93v-1.96c-.04-7.16 4.7-13.18 11.66-14.87.26-.08.48-.04.7.07 2.2 1.2 4.65 1.2 6.9 0 .18-.1.4-.15.66-.07 7 1.67 11.73 7.7 11.7 14.87v1.97c0 .53-.4.94-.92.94zm-28.84-1.85h27.9v-1.06c0-6.17-4-11.35-9.97-12.95-2.62 1.25-5.37 1.25-8 0-5.98 1.6-9.93 6.77-9.93 12.94z" stroke="#fff" stroke-opacity="0" stroke-width=".73" fill="#fff" fill-opacity="0"/><path d="M90.7 721.34H60.93c-.5 0-.92-.4-.92-.93v-1.96c-.03-7.16 4.7-13.18 11.67-14.87.25-.08.47-.04.7.07 2.2 1.2 4.64 1.2 6.9 0 .18-.1.4-.15.65-.07 7 1.67 11.74 7.7 11.7 14.87v1.97c0 .53-.4.94-.9.94zm-28.83-1.85h27.9v-1.06c0-6.17-4-11.35-9.97-12.95-2.63 1.25-5.38 1.25-8 0-5.98 1.6-9.93 6.77-9.93 12.94z" stroke="#fff" stroke-opacity="0" stroke-width=".73" fill="#fff" fill-opacity="0"/><use xlink:href="#i" transform="matrix(1,0,0,1,30,759) translate(31.049382716049386 17.77777777777778)"/><path d="M476.13 806c0-3.3 2.68-6 6-6h475.7c3.33 0 6 2.7 6 6v348c0 3.3-2.67 6-6 6h-475.7c-3.32 0-6-2.7-6-6z" fill="#248814" fill-opacity=".13"/><path d="M476.13 800h56v56h-56v-56z" stroke="#fff" stroke-opacity="0" fill="#248814"/><path d="M519.5 822.18c-.15-.17-.33-.25-.55-.25h-5.15v-5.58c-.03-2.54-.97-4.7-2.84-6.4-1.9-1.84-4.15-2.75-6.77-2.75-2.66 0-4.9.83-6.8 2.62-1.92 1.7-2.88 3.87-2.9 6.4v5.66h-5.16c-.25 0-.44.1-.6.25-.15.17-.2.34-.2.6V848c0 .43.33.8.8.8h29.58c.46 0 .8-.37.8-.8v-25.28c0-.2-.05-.38-.2-.54zm-23.45-5.9c.03-2.13.8-3.88 2.37-5.3 1.62-1.5 3.52-2.2 5.74-2.2 2.2 0 4.12.75 5.7 2.25 1.54 1.4 2.32 3.2 2.32 5.32v5.58h-16.16zm22.1 30.94H490.1v-23.7h28.02z" stroke="#fff" stroke-opacity="0" fill="#fff"/><path d="M503.32 837.3v6.25h1.6v-6.23c2.13-.4 3.63-2.2 3.64-4.35 0-2.43-1.98-4.4-4.42-4.43-2.2-.03-4.05 1.5-4.42 3.68-.4 2.4 1.2 4.68 3.6 5.1zm.82-7.15c.8 0 1.45.27 2 .82.55.56.83 1.22.82 2 0 1.55-1.2 2.8-2.75 2.82h-.06c-1.55.1-2.92-1.06-3.03-2.62-.1-1.56 1.06-2.93 2.62-3.03.15-.02.27-.02.42 0z" stroke="#fff" stroke-opacity="0" fill="#fff"/><use xlink:href="#g" transform="matrix(1,0,0,1,547.1272321428569,820) translate(0 14.4)"/><use xlink:href="#h" transform="matrix(1,0,0,1,547.1272321428569,820) translate(53.900000000000006 14.4)"/><path d="M999.97 806c0-3.3 2.7-6 6-6h475.72c3.3 0 6 2.7 6 6v348c0 3.3-2.7 6-6 6h-475.73c-3.3 0-6-2.7-6-6z" fill="#147eba" fill-opacity=".13"/><path d="M999.97 800h56v56h-56v-56z" stroke="#fff" stroke-opacity="0" fill="#147eba"/><path d="M1043.35 822.18c-.15-.17-.34-.25-.56-.25h-5.16v-5.58c-.03-2.54-.96-4.7-2.83-6.4-1.9-1.84-4.14-2.75-6.77-2.75-2.65 0-4.9.83-6.8 2.62-1.9 1.7-2.87 3.87-2.9 6.4v5.66h-5.15c-.25 0-.43.1-.6.25-.15.17-.2.34-.2.6V848c0 .43.34.8.8.8h29.58c.47 0 .8-.37.8-.8v-25.28c0-.2-.05-.38-.2-.54zm-23.46-5.9c.02-2.13.8-3.88 2.36-5.3 1.63-1.5 3.53-2.2 5.74-2.2 2.22 0 4.12.75 5.7 2.25 1.54 1.4 2.32 3.2 2.32 5.32v5.58h-16.16zm22.08 30.94h-28.02v-23.7h28.02z" stroke="#fff" stroke-opacity="0" fill="#fff"/><path d="M1027.17 837.3v6.25h1.6v-6.23c2.13-.4 3.63-2.2 3.63-4.35 0-2.43-1.97-4.4-4.4-4.43-2.2-.03-4.06 1.5-4.44 3.68-.4 2.4 1.2 4.68 3.6 5.1zm.82-7.15c.77 0 1.43.27 2 .82.53.56.8 1.22.8 2 .02 1.55-1.2 2.8-2.75 2.82h-.06c-1.57.1-2.93-1.06-3.05-2.62-.1-1.56 1.05-2.93 2.6-3.03.16-.02.3-.02.44 0z" stroke="#fff" stroke-opacity="0" fill="#fff"/><use xlink:href="#e" transform="matrix(1,0,0,1,1070.9720982142856,820) translate(0 14.4)"/><use xlink:href="#f" transform="matrix(1,0,0,1,1070.9720982142856,820) translate(60.9 14.4)"/><path d="M1060 306c0-3.3 2.7-6 6-6h415.7c3.3 0 6 2.7 6 6v848c0 3.3-2.7 6-6 6H1066c-3.3 0-6-2.7-6-6z" fill="#fff" fill-opacity="0"/><path d="M1076.4 300h8.9m5.94 0h8.9m5.94 0h8.9m5.95 0h8.9m5.95 0h8.9m5.94 0h8.9m5.95 0h8.9m5.94 0h8.92m5.94 0h8.9m5.95 0h8.9m5.95 0h8.9m5.95 0h8.9m5.94 0h8.9m5.95 0h8.9m5.94 0h8.9m5.94 0h8.9m5.95 0h8.9m5.95 0h8.9m5.94 0h8.9m5.95 0h8.9m5.94 0h8.92m5.94 0h8.9m5.95 0h8.9m5.95 0h8.9m5.95 0h8.9m5.94 0h8.9m5.95 0h8.9m5.94 0h4.45l3.02.82 2.15 2.15.82 3.03v4.46m0 5.95v8.94m0 5.95v8.92m0 5.95v8.92m0 5.95v8.92m0 5.95v8.93m0 5.95v8.93m0 5.95v8.92m0 5.95v8.93m0 5.95v8.93m0 5.95v8.94m0 5.95v8.9m0 5.96V489m0 5.94v8.93m0 5.95v8.92m0 5.95v8.92m0 5.95v8.93m0 5.95v8.93m0 5.95v8.92m0 5.95v8.93m0 5.95V608m0 5.96v8.92m0 5.96v8.92m0 5.95v8.94m0 5.95v8.92m0 5.95v8.92m0 5.94v8.93m0 5.95v8.93m0 5.95v8.92m0 5.96v8.92m0 5.95v8.93m0 5.95v8.93m0 5.95v8.93m0 5.95v8.93m0 5.96v8.93m0 5.94v8.92m0 5.96v8.92m0 5.95v8.92m0 5.95v8.93m0 5.95v8.92m0 5.95v8.93m0 5.95v8.93m0 5.95v8.93m0 5.96v8.92m0 5.95v8.93m0 5.95v8.94m0 5.95v8.9m0 5.96v8.93m0 5.94v8.93m0 5.95v8.93m0 5.95v8.92m0 5.95v8.93m0 5.95v8.93m0 5.95v8.92m0 5.96v8.93m0 5.95v8.93m0 5.96v8.93m0 5.94v4.46l-.83 3.03-2.15 2.15-3.03.82h-4.46m-5.94 0h-8.9m-5.95 0h-8.9m-5.94 0h-8.9m-5.94 0h-8.9m-5.95 0h-8.9m-5.93 0h-8.9m-5.95 0h-8.9m-5.94 0h-8.9m-5.95 0h-8.9m-5.95 0h-8.9m-5.94 0h-8.9m-5.95 0h-8.92m-5.94 0h-8.9m-5.94 0h-8.9m-5.95 0h-8.9m-5.94 0h-8.9m-5.94 0h-8.9m-5.95 0h-8.9m-5.93 0h-8.9m-5.95 0h-8.9m-5.94 0h-8.9m-5.95 0h-8.9m-5.95 0h-8.9m-5.94 0h-8.9m-5.95 0h-8.92m-5.93 0h-8.9m-5.95 0h-8.9m-5.95 0H1066l-3.03-.82-2.15-2.15-.82-3.03v-4.46m0-5.95v-8.94m0-5.95v-8.92m0-5.95v-8.92m0-5.95v-8.92m0-5.95v-8.93m0-5.95v-8.93m0-5.95v-8.92m0-5.95v-8.93m0-5.95v-8.93m0-5.95v-8.94m0-5.95v-8.9m0-5.96V971m0-5.94v-8.93m0-5.95v-8.92m0-5.95v-8.92m0-5.95v-8.93m0-5.95v-8.93m0-5.95v-8.92m0-5.95v-8.93m0-5.95V852m0-5.96v-8.92m0-5.96v-8.92m0-5.95v-8.94m0-5.95v-8.92m0-5.95v-8.92m0-5.94v-8.93m0-5.95v-8.93m0-5.95v-8.92m0-5.96v-8.92m0-5.95v-8.93m0-5.95v-8.93m0-5.95v-8.93m0-5.95v-8.93m0-5.96v-8.93m0-5.94v-8.92m0-5.96v-8.92m0-5.95v-8.92m0-5.95v-8.93m0-5.95v-8.92m0-5.95v-8.93m0-5.95v-8.93m0-5.95v-8.93m0-5.96v-8.92m0-5.95v-8.93m0-5.95v-8.94m0-5.95v-8.9m0-5.96v-8.93m0-5.94v-8.93m0-5.95v-8.93m0-5.95v-8.92m0-5.95v-8.93m0-5.95v-8.93m0-5.95v-8.92m0-5.96v-8.93m0-5.95v-8.93m0-5.96v-8.93m0-5.94V306l.82-3.03 2.15-2.15 3.03-.82h4.45" stroke="#d86613" stroke-width="3" fill="none"/><path d="M1245.84 300h56v56h-56v-56z" stroke="#fff" stroke-opacity="0" fill="#d86613"/><path d="M1265.52 323.73l-1.13 1.13 2.32 2.34h-12.88v1.6h12.88l-2.33 2.34 1.12 1.13 4.28-4.27-4.28-4.27zM1293.84 327.2h-12.87l2.33-2.34-1.13-1.13-4.28 4.27 4.27 4.27 1.13-1.13-2.33-2.34h12.87v-1.6zM1273.04 310.63v12.87h1.6v-12.87l2.34 2.33 1.14-1.13-4.28-4.28-4.27 4.28 1.14 1.13 2.34-2.33zM1274.65 345.37V332.5h-1.6v12.87l-2.34-2.33-1.13 1.13 4.27 4.28 4.28-4.28-1.14-1.13-2.33 2.33z" stroke="#fff" stroke-opacity="0" fill="#fff"/><use xlink:href="#j" transform="matrix(1,0,0,1,1060,371) translate(163.55 14.4)"/><use xlink:href="#k" transform="matrix(1,0,0,1,1060,371) translate(205.55 14.4)"/><path d="M1105.46 430c0-16.57 13.43-30 30-30h276.77c16.57 0 30 13.43 30 30v183.9c0 16.58-13.43 30-30 30h-276.77c-16.57 0-30-13.42-30-30z" stroke="#474747" stroke-width="3" fill-opacity="0"/><path d="M1105.46 430c0-16.57 13.43-30 30-30h276.77c16.57 0 30 13.43 30 30v183.9c0 16.58-13.43 30-30 30h-276.77c-16.57 0-30-13.42-30-30z" fill="none"/><path d="M1120.5 404.1l3.17-1.7 4.7-1.56 4.93-.76 2.16-.08h15.37m15.38 0h30.76m15.38 0h30.75m15.37 0h30.75m15.38 0h30.75m15.38 0h30.75m15.38 0h15.37l5.02.42 4.8 1.22 4.55 2 .6.42m10.95 10.98l1.68 3.17 1.56 4.72.76 4.93.07 2.15v15.33m0 15.32v30.65m0 15.33v30.65m0 15.33v30.66m0 15.33v15.3l-.4 5.03-1.24 4.8-2.02 4.55-.4.6m-11 10.95l-3.16 1.68-4.7 1.57-4.93.77-2.17.07h-15.37m-15.38 0h-30.75m-15.38 0h-30.75m-15.38 0h-30.75m-15.38 0h-30.76m-15.38 0h-30.75m-15.37 0h-15.37l-5.02-.4-4.8-1.23-4.55-2-.62-.42m-10.94-10.98l-1.68-3.17-1.56-4.7-.77-4.93-.07-2.16v-15.3m0-15.34V552.6m0-15.32v-30.65m0-15.33v-30.65m0-15.32V430l.4-5 1.24-4.82 2-4.54.42-.6" stroke="red" stroke-width="3" fill="none"/><use xlink:href="#l" transform="matrix(1,0,0,1,1105.4561941964284,613.913043478261) translate(98.83950617283952 11.11111111111111)"/><use xlink:href="#m" transform="matrix(1,0,0,1,1105.4561941964284,613.913043478261) translate(181.4320987654321 11.11111111111111)"/><path d="M400 721.57c0 21.2-17.92 38.42-40 38.42s-40-17.22-40-38.43c0-21.2 17.92-38.42 40-38.42s40 17.2 40 38.42z" fill="#9d5025"/><path d="M400 718.42c0 21.2-17.92 38.42-40 38.42s-40-17.2-40-38.42c0-21.2 17.92-38.42 40-38.42s40 17.2 40 38.42z" fill="#f58536"/><path d="M371.66 687.38v13.96h-23.34v-13.96h23.34zM389.72 727.76v11.36H377.9v-11.36h11.82zM374.77 727.76v11.36h-11.83v-11.36h11.83zM356.56 727.76v11.36h-11.82v-11.36h11.82zM341.6 727.76v11.36h-11.82v-11.36h11.82z" fill="#fff"/><path d="M334.62 717.93h2.13v11.14h-2.13v-11.14z" fill="#fff"/><path d="M334.62 717.93h17.1v2.04h-17.1v-2.04z" fill="#fff"/><path d="M349.58 717.93h2.13v11.14h-2.12v-11.14zM367.8 717.93h2.12v11.14h-2.13v-11.14z" fill="#fff"/><path d="M367.8 717.93h17.08v2.04h-17.1v-2.04z" fill="#fff"/><path d="M382.75 717.93h2.13v11.14h-2.13v-11.14zM342.12 709.97h2.13v8.97h-2.13v-8.97zM358.93 699.28h2.13v10.86h-2.13v-10.86z" fill="#fff"/><path d="M342.12 709.1h35.32v2.05h-35.32v-2.04z" fill="#fff"/><path d="M375.3 709.97h2.14v8.97h-2.13v-8.97z" fill="#fff"/><use xlink:href="#n" transform="matrix(1,0,0,1,320,759.9999999999999) translate(-14.2283950617284 17.77777777777778)"/><use xlink:href="#o" transform="matrix(1,0,0,1,320,759.9999999999999) translate(15.308641975308642 44.44444444444444)"/><use xlink:href="#p" transform="matrix(1,0,0,1,320,759.9999999999999) translate(-3.7654320987654373 71.11111111111111)"/><path d="M282.14 222c0-16.57 13.43-30 30-30H1550c16.57 0 30 13.43 30 30v988c0 16.57-13.43 30-30 30H312.14c-16.57 0-30-13.43-30-30z" stroke="#474747" fill-opacity="0"/><path d="M390.14 194.4v3.54c0 6.42-7.1 13.05-15.76 13.05H327.9c-8.65 0-15.75-6.64-15.75-13.06v-3.54z" fill="#9d5125"/><path d="M342.17 160c8.03 0 14.82 4.4 18.17 11.67 4.6-3.14 10.92-1.98 14.04 2.65 1.17 1.64 1.72 3.32 1.8 5.3 7.87.68 13.96 8.25 13.96 14.27v1.3c0 6.45-7.1 13-15.76 13H327.9c-8.66 0-15.76-6.55-15.76-13v-1.3c0-5.02 4.2-11.87 10.06-13.56v-.57c.08-10.95 8.97-19.82 19.97-19.77z" fill="#f58535"/><path d="M331.04 183.13h3.1l3.08 14.58 3.33-14.54h3.08l-4.6 18.2h-3.7zM345.5 183.13h5.78c3.5 0 5.04 2.2 5.04 5.3 0 3.1-1.9 5.4-5.33 5.4h-2.58v7.53h-2.9zm2.92 8.5h2.08c1.55 0 2.9-.83 2.9-3.14 0-1.98-.8-3.17-3.12-3.17h-1.86zM369.96 194.83v.38c0 3.32-1.33 6.52-5.62 6.52-4.6 0-6.04-2.97-6.04-9.47s1.44-9.46 6.05-9.46c5.2 0 5.54 3.8 5.54 5.7v.37h-2.92v-.3c0-1.7-.5-3.64-2.6-3.57-2.08.08-3.1 1.35-3.1 7.22 0 5.87.93 7.3 3.14 7.3 2.43 0 2.72-2.7 2.72-4.42v-.3z" fill="#fff"/><use xlink:href="#q" transform="matrix(1,0,0,1,282.1428571428405,1210) translate(553.5061728395062 11.11111111111111)"/><use xlink:href="#r" transform="matrix(1,0,0,1,282.1428571428405,1210) translate(618.7530864197531 11.11111111111111)"/><use xlink:href="#b" transform="matrix(1,0,0,1,282.1428571428405,1210) translate(691.4691358024692 11.11111111111111)"/><path d="M260 721.57c0 21.2-17.92 38.42-40 38.42s-40-17.22-40-38.43c0-21.2 17.92-38.42 40-38.42s40 17.2 40 38.42z" fill="#9d5025"/><path d="M180 718.42h80v3.15h-80v-3.15z" fill="#9d5025"/><path d="M260 718.42c0 21.2-17.92 38.42-40 38.42s-40-17.2-40-38.42c0-21.2 17.92-38.42 40-38.42s40 17.2 40 38.42z" fill="#f58536"/><path d="M189.84 722.24v-1c.3-4.66 3-8.54 7.4-10.57.43-8.58 8.03-15.2 17-14.75 5.6.26 10.3 3 13.14 7.65 4.58-1.85 9.82.18 11.75 4.55.3.62.48 1.14.6 1.77 6.03 1.14 10.37 6.68 10.37 11.34v.92c0 5.7-6.15 10.7-13.14 10.7h-34.04c-6.93.02-13.08-4.97-13.08-10.62z" fill="#fff"/><path d="M228.2 707.66l-2.56 1.7-1.3-2.72c-2-4.23-6.05-6.82-10.9-6.85h-.05c-6.63 0-12.05 5.18-12.05 11.58v2.16l-1.87.52c-3.18 1.23-5.27 3.9-5.53 7.2v.93c0 3.1 3.96 6.72 9.02 6.72h34.08c5.1 0 9-3.6 9-6.73v-.94c0-3.15-3.63-7.25-7.85-7.57l-2.3-.2-.15-2.17c0-.94-.32-1.7-.84-2.45-1.5-2.13-4.52-2.65-6.7-1.2z" fill="#f58536"/><use xlink:href="#s" transform="matrix(1,0,0,1,180,759.9999999999999) translate(2.3765432098765444 17.77777777777778)"/><use xlink:href="#t" transform="matrix(1,0,0,1,180,759.9999999999999) translate(-1.327160493827158 44.44444444444444)"/><path d="M1229.3 442.34l-4.96 2.5v70.32l4.97 2.48 20.1-35.84-20.1-39.46z" fill="#9d5025"/><path d="M1240.87 514.93l-11.57 2.7v-75.3l11.57 2.65v69.95z" fill="#f58536"/><path d="M1234.78 439.58l6.1-3.04 28.97 46.58-28.97 40.32-6.1-3.04v-80.82z" fill="#9d5025"/><path d="M1255.3 519.36l-14.42 4.08v-86.9l14.42 4.08v78.74z" fill="#f58536"/><path d="M1247.67 433.13l7.66-3.85 42.7 58.92-42.7 42.5-7.66-3.85v-93.72z" fill="#9d5025"/><path d="M1273.83 523.9l-18.52 6.8V429.28l18.53 6.8v87.82z" fill="#f58536"/><path d="M1263.95 424.92l9.88-4.92 46.23 63.36-46.23 56.64-9.88-4.92V424.92z" fill="#9d5025"/><path d="M1323.33 515.16l-49.5 24.84V420l49.5 24.84v70.32z" fill="#f58536"/><use xlink:href="#u" transform="matrix(1,0,0,1,1224.3448660714282,540) translate(8.79012345679012 17.77777777777778)"/><use xlink:href="#v" transform="matrix(1,0,0,1,1224.3448660714282,540) translate(27.925925925925927 44.44444444444444)"/><path d="M1105.46 910c0-16.57 13.43-30 30-30h276.77c16.57 0 30 13.43 30 30v183.9c0 16.58-13.43 30-30 30h-276.77c-16.57 0-30-13.42-30-30z" stroke="#474747" stroke-width="3" fill-opacity="0"/><path d="M1105.46 910c0-16.57 13.43-30 30-30h276.77c16.57 0 30 13.43 30 30v183.9c0 16.58-13.43 30-30 30h-276.77c-16.57 0-30-13.42-30-30z" fill="none"/><path d="M1120.5 884.1l3.17-1.7 4.7-1.56 4.93-.76 2.16-.08h15.37m15.38 0h30.76m15.38 0h30.75m15.37 0h30.75m15.38 0h30.75m15.38 0h30.75m15.38 0h15.37l5.02.42 4.8 1.22 4.55 2 .6.42m10.95 10.98l1.68 3.17 1.56 4.72.76 4.93.07 2.15v15.33m0 15.32v30.65m0 15.33v30.65m0 15.33v30.66m0 15.33v15.3l-.4 5.03-1.24 4.8-2.02 4.55-.4.6m-11 10.95l-3.16 1.68-4.7 1.57-4.93.77-2.17.07h-15.37m-15.38 0h-30.75m-15.38 0h-30.75m-15.38 0h-30.75m-15.38 0h-30.76m-15.38 0h-30.75m-15.37 0h-15.37l-5.02-.4-4.8-1.23-4.55-2-.62-.42m-10.94-10.98l-1.68-3.17-1.56-4.7-.77-4.93-.07-2.16v-15.3m0-15.34v-30.65m0-15.32v-30.65m0-15.33v-30.65m0-15.32V910l.4-5 1.24-4.82 2-4.54.42-.6" stroke="red" stroke-width="3" fill="none"/><use xlink:href="#l" transform="matrix(1,0,0,1,1105.4561941964284,1093.913043478261) translate(98.83950617283952 11.11111111111111)"/><use xlink:href="#m" transform="matrix(1,0,0,1,1105.4561941964284,1093.913043478261) translate(181.4320987654321 11.11111111111111)"/><path d="M1229.3 924.34l-4.96 2.5v70.32l4.97 2.48 20.1-35.84-20.1-39.46z" fill="#9d5025"/><path d="M1240.87 996.93l-11.57 2.7v-75.3l11.57 2.65v69.95z" fill="#f58536"/><path d="M1234.78 921.58l6.1-3.04 28.97 46.58-28.97 40.32-6.1-3.04v-80.82z" fill="#9d5025"/><path d="M1255.3 1001.36l-14.42 4.08v-86.9l14.42 4.08v78.74z" fill="#f58536"/><path d="M1247.67 915.13l7.66-3.85 42.7 58.92-42.7 42.5-7.66-3.85v-93.72z" fill="#9d5025"/><path d="M1273.83 1005.9l-18.52 6.8V911.28l18.53 6.8v87.82z" fill="#f58536"/><path d="M1263.95 906.92l9.88-4.92 46.23 63.36-46.23 56.64-9.88-4.92V906.92z" fill="#9d5025"/><path d="M1323.33 997.16l-49.5 24.84V902l49.5 24.84v70.32z" fill="#f58536"/><use xlink:href="#u" transform="matrix(1,0,0,1,1224.3448660714282,1022.0000000000002) translate(8.79012345679012 17.77777777777778)"/><use xlink:href="#v" transform="matrix(1,0,0,1,1224.3448660714282,1022.0000000000002) translate(27.925925925925927 44.44444444444444)"/><path d="M777.5 472.36c0 31.8-25.77 57.63-57.5 57.63-31.75 0-57.5-25.83-57.5-57.64 0-31.8 25.75-57.63 57.5-57.63 31.73 0 57.5 25.82 57.5 57.63z" fill="#9d5025"/><path d="M777.5 467.63c0 31.8-25.77 57.63-57.5 57.63-31.75 0-57.5-25.82-57.5-57.63 0-31.8 25.75-57.63 57.5-57.63 31.73 0 57.5 25.82 57.5 57.63z" fill="#f58536"/><path d="M735.55 440.86h6.06v53.5h-6.05v-53.5zM752.6 454.4l15.87 12.97-15.87 13.48V454.4z" fill="#fff"/><path d="M696.47 464.6l3.5 2.8-3.86 3.26h59.17v-6.06h-58.8zM696.1 443.9h45.5v-6.06H696.5l3.45 2.82-3.82 3.25zM699.93 494.15l-3.82 3.26h45.5v-6.06H696.5l3.45 2.8zM683.47 457.04l12.7 10.35-12.7 10.8v-21.16zM683.47 430.3l12.7 10.35-12.7 10.8v-21.16zM683.47 483.8l12.7 10.36-12.7 10.78V483.8z" fill="#fff"/><use xlink:href="#w" transform="matrix(1,0,0,1,662.4860491071423,529.9999999999998) translate(10.49382716049383 17.77777777777778)"/><use xlink:href="#x" transform="matrix(1,0,0,1,662.4860491071423,529.9999999999998) translate(62.28395061728395 17.77777777777778)"/><use xlink:href="#t" transform="matrix(1,0,0,1,662.4860491071423,529.9999999999998) translate(16.172839506172842 44.44444444444444)"/><path d="M777.5 972.36c0 31.8-25.77 57.63-57.5 57.63-31.75 0-57.5-25.83-57.5-57.64 0-31.8 25.75-57.63 57.5-57.63 31.73 0 57.5 25.82 57.5 57.63z" fill="#9d5025"/><path d="M777.5 967.63c0 31.8-25.77 57.63-57.5 57.63-31.75 0-57.5-25.82-57.5-57.63 0-31.8 25.75-57.63 57.5-57.63 31.73 0 57.5 25.82 57.5 57.63z" fill="#f58536"/><path d="M735.55 940.86h6.06v53.5h-6.05v-53.5zM752.6 954.4l15.87 12.97-15.87 13.48V954.4z" fill="#fff"/><path d="M696.47 964.6l3.5 2.8-3.86 3.26h59.17v-6.06h-58.8zM696.1 943.9h45.5v-6.06H696.5l3.45 2.82-3.82 3.25zM699.93 994.15l-3.82 3.26h45.5v-6.06H696.5l3.45 2.8zM683.47 957.04l12.7 10.35-12.7 10.8v-21.16zM683.47 930.3l12.7 10.35-12.7 10.8v-21.16zM683.47 983.8l12.7 10.36-12.7 10.78V983.8z" fill="#fff"/><g><use xlink:href="#w" transform="matrix(1,0,0,1,662.4860491071423,1029.9999999999998) translate(10.49382716049383 17.77777777777778)"/><use xlink:href="#x" transform="matrix(1,0,0,1,662.4860491071423,1029.9999999999998) translate(62.28395061728395 17.77777777777778)"/><use xlink:href="#t" transform="matrix(1,0,0,1,662.4860491071423,1029.9999999999998) translate(16.172839506172842 44.44444444444444)"/></g><path d="M90 385.42l57.98 8.62v5.1c0 7.53-25.98 13.63-58 13.63-32 0-57.98-6.1-57.98-13.64v-5.53z" fill="#8c3123"/><path d="M90.02 422.13c24.2 0 44.93-3.54 53.58-8.5l2.88-4.78 1.15-4.4v5.45l-19 81c0 5.08-17.3 9.1-38.6 9.1-21.33 0-38.6-4.02-38.6-9.1l-19.02-81v-5.35l4.38 9.27c8.76 4.87 29.27 8.3 53.24 8.3z" fill="#8c3123"/><path d="M90 380c32 0 58 6.12 58 13.62 0 7.5-26 13.57-58 13.57s-58-6.02-58-13.58C32 386.06 58 380 90 380z" fill="#e05243"/><path d="M90 416.6c29.84 0 54.4-5.2 57.62-12.06l-19.02 81c0 5.05-17.3 9.1-38.6 9.1-21.33 0-38.6-4.05-38.6-9.1l-19.03-81C35.6 411.4 60.15 416.6 90 416.6z" fill="#e05243"/><g><use xlink:href="#y" transform="matrix(1,0,0,1,32,500) translate(25.28395061728395 17.77777777777778)"/></g><path d="M145.12 263.75c-.48-.6-.84-1.22-1.2-1.83-2.04-3.88-3.12-7.45-3.84-11.73-3-14.2-10.92-25.1-23.4-32.45-8.76-5.3-17.64-8.77-28.08-7.44-13.92 1.74-25.68 6.94-33.84 18.98-4.68 7.14-7.92 13.67-10.68 21.83-2.52 7.04-2.28 14.7-5.4 21.53-.72 1.43-1.44 2.55-2.28 3.87-2.16 3.37-5.04 6.43-6.6 10-3.84 8.87-1.68 13.97 6.84 18.36.96.4 1.8.82 2.76 1.22 9.96 3.98 33.36 8.98 47.76 3.47 3.6-1.12 6.48-2.34 9.72-4.18 11.52-6.12 23.04-12.44 34.56-18.67 5.4-2.75 9.72-5.9 13.8-10.5 3.72-4.3 3.6-8.26-.12-12.45z" fill="#4b612c"/><path d="M104.45 215.25c6.4 2.3 11.53 5.26 16.76 9.84 3.64 2.86 13.46 13 15.7 25.6.22 1.9.43 3.82.75 5.64.32.86.75 1.52 1.3 2.2l1.16 2.95s2.15 3.43 3.32 5.06c1.5 2.1 2.03 4.2.43 6.3-3.74 4.78-8.55 8.13-14.42 11.18l.54-6.2-3.85-1.15c-1.5 3.33-.53 5.8 3.1 7.63-3.42 1.8-6.5 3.44-9.5 4.97-9.3 4.97-18.48 10.03-27.77 14.9-7.15 3.73-14.1 5.26-22.1 5.07-9.3-.4-17.2-1.9-25.95-4.97-3.73-1.44-6.83-7.36-5.65-11.08.53-1.82 2.45-2.97 4.27-2.58 6.5.66 13.02 1.43 19.54 2.2 7.15.85 14.4 2.48 21.57 2.48 8.22 0 16-2.5 23.7-5.64-2.35.2-4.7.3-6.94.48-6.52.48-12.93.67-19.34 1.53-8 1.04-15.48-.68-23.06-2.6-6.2-1.33-11.1-4.67-14.63-9.93-1.4-2.1-2.24-4.4-1.17-6.6.85.77 1.8 2.2 2.45 2.1.75-.1 2.03-1.33 2.46-2.38.97-2.6 1.6-5.26 2.36-7.94 1.17-5.06 2.45-9.36 4.16-14.33 3.3-8.4 6.94-16.82 12.6-24.08 2.14-2.86 4.17-5.16 6.94-7.55 3.3-2.96 7.7-3.9 12.07-4.4 5.02-.47 10.14-.18 15.37-.28.22 0 .54.3.86.4z" fill="#759c3e"/><path d="M136.92 250.72c-1.05-2.36-2.07-4.26-3.38-6.48-1.2-1.66-2.46-2.9-4.16-4.07-7.54-5.23-17.87-3.33-23.08 4.16-4.28 5.97-6.23 12.77-7.37 19.85-.34 2.13-.6 4.26-.98 7-2.24-3.85-3.26-7.64-3.3-12.1-.42-8.55.8-16.83 6.18-23.95 3.82-5.1 8.35-9.26 15-10.18 1.86-.1 3.47-.05 5.34.18 2.03 1.76 4.44 3.2 6 5.28 4.42 5.42 7.25 10.8 9.33 17.45.2.97.34 1.85.42 2.87z" fill="#b7ca9d"/><path d="M104.42 215.26c-7.4 2.03-11.67 7.5-15.18 13.8-5.05 9-8.74 18.54-8.54 29.02.03 6.35 1.18 11.7 3.75 17.47.27.57.45 1.2.8 2.16-2.72.13-5.08-1.07-6.56-3.36-2.8-4.06-4.02-8.32-3.8-13.28.3-13.53 2.94-26.55 11.83-37.48 2.03-2.4 3.92-4.38 6.35-6.48 2.4-2.16 5.2-3.1 8.38-2.92z" fill="#b7ca9d"/><path d="M140.1 261.5c0 3.35-2.32 5.13-4.53 6.9-11.27 9-24.38 13.72-38.33 16.3-6.2 1.14-12.47 2.16-18.75 2.92-7.58.9-14.7-1.75-21.9-3.62-2.95-.76-5.8-1.7-8.86-2.58 0-.32 0-.6.1-.93 1.38-.13 2.58-.13 3.96 0 5.82.98 11.55 2.47 17.37 3.06 5.63.58 10.52.58 16.16 0 10.53-1.1 19.4-3.13 29.37-6.87 5.8-2.32 10.52-4.63 15.88-7.73 4.06-2.28 7.85-5.15 8.3-10.4zM126.14 276.7c2.8-1.65 5.5-3.46 8.4-4.94 1.32-.4 2.5-.57 3.88-.52l.28.68-8.73 5.9z" fill="#b7ca9d"/><g><use xlink:href="#z" transform="matrix(1,0,0,1,28,312) translate(10.679012345679013 17.77777777777778)"/></g><defs><path fill="#333" d="M205 0l-28-72H64L36 0H1l101-248h38L239 0h-34zm-38-99l-47-123c-12 45-31 82-46 123h93" id="A"/><path fill="#333" d="M266 0h-40l-56-210L115 0H75L2-248h35L96-30l15-64 43-154h32l59 218 59-218h35" id="B"/><path fill="#333" d="M185-189c-5-48-123-54-124 2 14 75 158 14 163 119 3 78-121 87-175 55-17-10-28-26-33-46l33-7c5 56 141 63 141-1 0-78-155-14-162-118-5-82 145-84 179-34 5 7 8 16 11 25" id="C"/><g id="a"><use transform="matrix(0.06172839506172839,0,0,0.06172839506172839,0,0)" xlink:href="#A"/><use transform="matrix(0.06172839506172839,0,0,0.06172839506172839,14.012345679012345,0)" xlink:href="#B"/><use transform="matrix(0.06172839506172839,0,0,0.06172839506172839,34.938271604938265,0)" xlink:href="#C"/></g><path fill="#333" d="M96-169c-40 0-48 33-48 73s9 75 48 75c24 0 41-14 43-38l32 2c-6 37-31 61-74 61-59 0-76-41-82-99-10-93 101-131 147-64 4 7 5 14 7 22l-32 3c-4-21-16-35-41-35" id="D"/><path fill="#333" d="M24 0v-261h32V0H24" id="E"/><path fill="#333" d="M100-194c62-1 85 37 85 99 1 63-27 99-86 99S16-35 15-95c0-66 28-99 85-99zM99-20c44 1 53-31 53-75 0-43-8-75-51-75s-53 32-53 75 10 74 51 75" id="F"/><path fill="#333" d="M84 4C-5 8 30-112 23-190h32v120c0 31 7 50 39 49 72-2 45-101 50-169h31l1 190h-30c-1-10 1-25-2-33-11 22-28 36-60 37" id="G"/><path fill="#333" d="M85-194c31 0 48 13 60 33l-1-100h32l1 261h-30c-2-10 0-23-3-31C134-8 116 4 85 4 32 4 16-35 15-94c0-66 23-100 70-100zm9 24c-40 0-46 34-46 75 0 40 6 74 45 74 42 0 51-32 51-76 0-42-9-74-50-73" id="H"/><g id="b"><use transform="matrix(0.06172839506172839,0,0,0.06172839506172839,0,0)" xlink:href="#D"/><use transform="matrix(0.06172839506172839,0,0,0.06172839506172839,11.11111111111111,0)" xlink:href="#E"/><use transform="matrix(0.06172839506172839,0,0,0.06172839506172839,15.987654320987653,0)" xlink:href="#F"/><use transform="matrix(0.06172839506172839,0,0,0.06172839506172839,28.333333333333332,0)" xlink:href="#G"/><use transform="matrix(0.06172839506172839,0,0,0.06172839506172839,40.67901234567901,0)" xlink:href="#H"/></g><path fill="#147eba" d="M205 0l-28-72H64L36 0H1l101-248h38L239 0h-34zm-38-99l-47-123c-12 45-31 82-46 123h93" id="I"/><path fill="#147eba" d="M108 0H70L1-190h34L89-25l56-165h34" id="J"/><path fill="#147eba" d="M141-36C126-15 110 5 73 4 37 3 15-17 15-53c-1-64 63-63 125-63 3-35-9-54-41-54-24 1-41 7-42 31l-33-3c5-37 33-52 76-52 45 0 72 20 72 64v82c-1 20 7 32 28 27v20c-31 9-61-2-59-35zM48-53c0 20 12 33 32 33 41-3 63-29 60-74-43 2-92-5-92 41" id="K"/><path fill="#147eba" d="M24-231v-30h32v30H24zM24 0v-190h32V0H24" id="L"/><path fill="#147eba" d="M24 0v-261h32V0H24" id="M"/><path fill="#147eba" d="M115-194c53 0 69 39 70 98 0 66-23 100-70 100C84 3 66-7 56-30L54 0H23l1-261h32v101c10-23 28-34 59-34zm-8 174c40 0 45-34 45-75 0-40-5-75-45-74-42 0-51 32-51 76 0 43 10 73 51 73" id="N"/><path fill="#147eba" d="M59-47c-2 24 18 29 38 22v24C64 9 27 4 27-40v-127H5v-23h24l9-43h21v43h35v23H59v120" id="O"/><path fill="#147eba" d="M179-190L93 31C79 59 56 82 12 73V49c39 6 53-20 64-50L1-190h34L92-34l54-156h33" id="P"/><g id="c"><use transform="matrix(0.05,0,0,0.05,0,0)" xlink:href="#I"/><use transform="matrix(0.05,0,0,0.05,11.65,0)" xlink:href="#J"/><use transform="matrix(0.05,0,0,0.05,20.65,0)" xlink:href="#K"/><use transform="matrix(0.05,0,0,0.05,30.649999999999995,0)" xlink:href="#L"/><use transform="matrix(0.05,0,0,0.05,34.6,0)" xlink:href="#M"/><use transform="matrix(0.05,0,0,0.05,38.550000000000004,0)" xlink:href="#K"/><use transform="matrix(0.05,0,0,0.05,48.550000000000004,0)" xlink:href="#N"/><use transform="matrix(0.05,0,0,0.05,58.550000000000004,0)" xlink:href="#L"/><use transform="matrix(0.05,0,0,0.05,62.5,0)" xlink:href="#M"/><use transform="matrix(0.05,0,0,0.05,66.45,0)" xlink:href="#L"/><use transform="matrix(0.05,0,0,0.05,70.4,0)" xlink:href="#O"/><use transform="matrix(0.05,0,0,0.05,75.4,0)" xlink:href="#P"/></g><path fill="#147eba" d="M209 0H11v-25l151-195H24v-28h176v25L50-27h159V0" id="Q"/><path fill="#147eba" d="M100-194c62-1 85 37 85 99 1 63-27 99-86 99S16-35 15-95c0-66 28-99 85-99zM99-20c44 1 53-31 53-75 0-43-8-75-51-75s-53 32-53 75 10 74 51 75" id="R"/><path fill="#147eba" d="M117-194c89-4 53 116 60 194h-32v-121c0-31-8-49-39-48C34-167 62-67 57 0H25l-1-190h30c1 10-1 24 2 32 11-22 29-35 61-36" id="S"/><path fill="#147eba" d="M100-194c63 0 86 42 84 106H49c0 40 14 67 53 68 26 1 43-12 49-29l28 8c-11 28-37 45-77 45C44 4 14-33 15-96c1-61 26-98 85-98zm52 81c6-60-76-77-97-28-3 7-6 17-6 28h103" id="T"/><g id="d"><use transform="matrix(0.05,0,0,0.05,0,0)" xlink:href="#Q"/><use transform="matrix(0.05,0,0,0.05,10.950000000000001,0)" xlink:href="#R"/><use transform="matrix(0.05,0,0,0.05,20.950000000000003,0)" xlink:href="#S"/><use transform="matrix(0.05,0,0,0.05,30.950000000000003,0)" xlink:href="#T"/></g><path fill="#147eba" d="M30-248c87 1 191-15 191 75 0 78-77 80-158 76V0H30v-248zm33 125c57 0 124 11 124-50 0-59-68-47-124-48v98" id="U"/><path fill="#147eba" d="M114-163C36-179 61-72 57 0H25l-1-190h30c1 12-1 29 2 39 6-27 23-49 58-41v29" id="V"/><g id="e"><use transform="matrix(0.05,0,0,0.05,0,0)" xlink:href="#U"/><use transform="matrix(0.05,0,0,0.05,12,0)" xlink:href="#V"/><use transform="matrix(0.05,0,0,0.05,17.95,0)" xlink:href="#L"/><use transform="matrix(0.05,0,0,0.05,21.9,0)" xlink:href="#J"/><use transform="matrix(0.05,0,0,0.05,30.899999999999995,0)" xlink:href="#K"/><use transform="matrix(0.05,0,0,0.05,40.9,0)" xlink:href="#O"/><use transform="matrix(0.05,0,0,0.05,45.9,0)" xlink:href="#T"/></g><path fill="#147eba" d="M185-189c-5-48-123-54-124 2 14 75 158 14 163 119 3 78-121 87-175 55-17-10-28-26-33-46l33-7c5 56 141 63 141-1 0-78-155-14-162-118-5-82 145-84 179-34 5 7 8 16 11 25" id="W"/><path fill="#147eba" d="M84 4C-5 8 30-112 23-190h32v120c0 31 7 50 39 49 72-2 45-101 50-169h31l1 190h-30c-1-10 1-25-2-33-11 22-28 36-60 37" id="X"/><g id="f"><use transform="matrix(0.05,0,0,0.05,0,0)" xlink:href="#W"/><use transform="matrix(0.05,0,0,0.05,12,0)" xlink:href="#X"/><use transform="matrix(0.05,0,0,0.05,22,0)" xlink:href="#N"/><use transform="matrix(0.05,0,0,0.05,32,0)" xlink:href="#S"/><use transform="matrix(0.05,0,0,0.05,42,0)" xlink:href="#T"/><use transform="matrix(0.05,0,0,0.05,52,0)" xlink:href="#O"/></g><path fill="#248814" d="M30-248c87 1 191-15 191 75 0 78-77 80-158 76V0H30v-248zm33 125c57 0 124 11 124-50 0-59-68-47-124-48v98" id="Y"/><path fill="#248814" d="M84 4C-5 8 30-112 23-190h32v120c0 31 7 50 39 49 72-2 45-101 50-169h31l1 190h-30c-1-10 1-25-2-33-11 22-28 36-60 37" id="Z"/><path fill="#248814" d="M115-194c53 0 69 39 70 98 0 66-23 100-70 100C84 3 66-7 56-30L54 0H23l1-261h32v101c10-23 28-34 59-34zm-8 174c40 0 45-34 45-75 0-40-5-75-45-74-42 0-51 32-51 76 0 43 10 73 51 73" id="aa"/><path fill="#248814" d="M24 0v-261h32V0H24" id="ab"/><path fill="#248814" d="M24-231v-30h32v30H24zM24 0v-190h32V0H24" id="ac"/><path fill="#248814" d="M96-169c-40 0-48 33-48 73s9 75 48 75c24 0 41-14 43-38l32 2c-6 37-31 61-74 61-59 0-76-41-82-99-10-93 101-131 147-64 4 7 5 14 7 22l-32 3c-4-21-16-35-41-35" id="ad"/><g id="g"><use transform="matrix(0.05,0,0,0.05,0,0)" xlink:href="#Y"/><use transform="matrix(0.05,0,0,0.05,12,0)" xlink:href="#Z"/><use transform="matrix(0.05,0,0,0.05,22,0)" xlink:href="#aa"/><use transform="matrix(0.05,0,0,0.05,32,0)" xlink:href="#ab"/><use transform="matrix(0.05,0,0,0.05,35.95,0)" xlink:href="#ac"/><use transform="matrix(0.05,0,0,0.05,39.900000000000006,0)" xlink:href="#ad"/></g><path fill="#248814" d="M185-189c-5-48-123-54-124 2 14 75 158 14 163 119 3 78-121 87-175 55-17-10-28-26-33-46l33-7c5 56 141 63 141-1 0-78-155-14-162-118-5-82 145-84 179-34 5 7 8 16 11 25" id="ae"/><path fill="#248814" d="M117-194c89-4 53 116 60 194h-32v-121c0-31-8-49-39-48C34-167 62-67 57 0H25l-1-190h30c1 10-1 24 2 32 11-22 29-35 61-36" id="af"/><path fill="#248814" d="M100-194c63 0 86 42 84 106H49c0 40 14 67 53 68 26 1 43-12 49-29l28 8c-11 28-37 45-77 45C44 4 14-33 15-96c1-61 26-98 85-98zm52 81c6-60-76-77-97-28-3 7-6 17-6 28h103" id="ag"/><path fill="#248814" d="M59-47c-2 24 18 29 38 22v24C64 9 27 4 27-40v-127H5v-23h24l9-43h21v43h35v23H59v120" id="ah"/><g id="h"><use transform="matrix(0.05,0,0,0.05,0,0)" xlink:href="#ae"/><use transform="matrix(0.05,0,0,0.05,12,0)" xlink:href="#Z"/><use transform="matrix(0.05,0,0,0.05,22,0)" xlink:href="#aa"/><use transform="matrix(0.05,0,0,0.05,32,0)" xlink:href="#af"/><use transform="matrix(0.05,0,0,0.05,42,0)" xlink:href="#ag"/><use transform="matrix(0.05,0,0,0.05,52,0)" xlink:href="#ah"/></g><path fill="#333" d="M232-93c-1 65-40 97-104 97C67 4 28-28 28-90v-158h33c8 89-33 224 67 224 102 0 64-133 71-224h33v155" id="ai"/><path fill="#333" d="M135-143c-3-34-86-38-87 0 15 53 115 12 119 90S17 21 10-45l28-5c4 36 97 45 98 0-10-56-113-15-118-90-4-57 82-63 122-42 12 7 21 19 24 35" id="aj"/><path fill="#333" d="M100-194c63 0 86 42 84 106H49c0 40 14 67 53 68 26 1 43-12 49-29l28 8c-11 28-37 45-77 45C44 4 14-33 15-96c1-61 26-98 85-98zm52 81c6-60-76-77-97-28-3 7-6 17-6 28h103" id="ak"/><path fill="#333" d="M114-163C36-179 61-72 57 0H25l-1-190h30c1 12-1 29 2 39 6-27 23-49 58-41v29" id="al"/><g id="i"><use transform="matrix(0.06172839506172839,0,0,0.06172839506172839,0,0)" xlink:href="#ai"/><use transform="matrix(0.06172839506172839,0,0,0.06172839506172839,15.987654320987653,0)" xlink:href="#aj"/><use transform="matrix(0.06172839506172839,0,0,0.06172839506172839,27.098765432098766,0)" xlink:href="#ak"/><use transform="matrix(0.06172839506172839,0,0,0.06172839506172839,39.44444444444444,0)" xlink:href="#al"/><use transform="matrix(0.06172839506172839,0,0,0.06172839506172839,46.79012345679012,0)" xlink:href="#aj"/></g><path fill="#d86613" d="M205 0l-28-72H64L36 0H1l101-248h38L239 0h-34zm-38-99l-47-123c-12 45-31 82-46 123h93" id="am"/><path fill="#d86613" d="M84 4C-5 8 30-112 23-190h32v120c0 31 7 50 39 49 72-2 45-101 50-169h31l1 190h-30c-1-10 1-25-2-33-11 22-28 36-60 37" id="an"/><path fill="#d86613" d="M59-47c-2 24 18 29 38 22v24C64 9 27 4 27-40v-127H5v-23h24l9-43h21v43h35v23H59v120" id="ao"/><path fill="#d86613" d="M100-194c62-1 85 37 85 99 1 63-27 99-86 99S16-35 15-95c0-66 28-99 85-99zM99-20c44 1 53-31 53-75 0-43-8-75-51-75s-53 32-53 75 10 74 51 75" id="ap"/><g id="j"><use transform="matrix(0.05,0,0,0.05,0,0)" xlink:href="#am"/><use transform="matrix(0.05,0,0,0.05,12,0)" xlink:href="#an"/><use transform="matrix(0.05,0,0,0.05,22,0)" xlink:href="#ao"/><use transform="matrix(0.05,0,0,0.05,27,0)" xlink:href="#ap"/></g><path fill="#d86613" d="M185-189c-5-48-123-54-124 2 14 75 158 14 163 119 3 78-121 87-175 55-17-10-28-26-33-46l33-7c5 56 141 63 141-1 0-78-155-14-162-118-5-82 145-84 179-34 5 7 8 16 11 25" id="aq"/><path fill="#d86613" d="M96-169c-40 0-48 33-48 73s9 75 48 75c24 0 41-14 43-38l32 2c-6 37-31 61-74 61-59 0-76-41-82-99-10-93 101-131 147-64 4 7 5 14 7 22l-32 3c-4-21-16-35-41-35" id="ar"/><path fill="#d86613" d="M141-36C126-15 110 5 73 4 37 3 15-17 15-53c-1-64 63-63 125-63 3-35-9-54-41-54-24 1-41 7-42 31l-33-3c5-37 33-52 76-52 45 0 72 20 72 64v82c-1 20 7 32 28 27v20c-31 9-61-2-59-35zM48-53c0 20 12 33 32 33 41-3 63-29 60-74-43 2-92-5-92 41" id="as"/><path fill="#d86613" d="M24 0v-261h32V0H24" id="at"/><path fill="#d86613" d="M24-231v-30h32v30H24zM24 0v-190h32V0H24" id="au"/><path fill="#d86613" d="M117-194c89-4 53 116 60 194h-32v-121c0-31-8-49-39-48C34-167 62-67 57 0H25l-1-190h30c1 10-1 24 2 32 11-22 29-35 61-36" id="av"/><path fill="#d86613" d="M177-190C167-65 218 103 67 71c-23-6-38-20-44-43l32-5c15 47 100 32 89-28v-30C133-14 115 1 83 1 29 1 15-40 15-95c0-56 16-97 71-98 29-1 48 16 59 35 1-10 0-23 2-32h30zM94-22c36 0 50-32 50-73 0-42-14-75-50-75-39 0-46 34-46 75s6 73 46 73" id="aw"/><g id="k"><use transform="matrix(0.05,0,0,0.05,0,0)" xlink:href="#aq"/><use transform="matrix(0.05,0,0,0.05,12,0)" xlink:href="#ar"/><use transform="matrix(0.05,0,0,0.05,21,0)" xlink:href="#as"/><use transform="matrix(0.05,0,0,0.05,31,0)" xlink:href="#at"/><use transform="matrix(0.05,0,0,0.05,34.95,0)" xlink:href="#au"/><use transform="matrix(0.05,0,0,0.05,38.900000000000006,0)" xlink:href="#av"/><use transform="matrix(0.05,0,0,0.05,48.900000000000006,0)" xlink:href="#aw"/></g><path fill="#333" d="M24-231v-30h32v30H24zM24 0v-190h32V0H24" id="ax"/><path fill="#333" d="M59-47c-2 24 18 29 38 22v24C64 9 27 4 27-40v-127H5v-23h24l9-43h21v43h35v23H59v120" id="ay"/><path fill="#333" d="M179-190L93 31C79 59 56 82 12 73V49c39 6 53-20 64-50L1-190h34L92-34l54-156h33" id="az"/><g id="l"><use transform="matrix(0.06172839506172839,0,0,0.06172839506172839,0,0)" xlink:href="#aj"/><use transform="matrix(0.06172839506172839,0,0,0.06172839506172839,11.11111111111111,0)" xlink:href="#ak"/><use transform="matrix(0.06172839506172839,0,0,0.06172839506172839,23.45679012345679,0)" xlink:href="#D"/><use transform="matrix(0.06172839506172839,0,0,0.06172839506172839,34.5679012345679,0)" xlink:href="#G"/><use transform="matrix(0.06172839506172839,0,0,0.06172839506172839,46.913580246913575,0)" xlink:href="#al"/><use transform="matrix(0.06172839506172839,0,0,0.06172839506172839,54.25925925925925,0)" xlink:href="#ax"/><use transform="matrix(0.06172839506172839,0,0,0.06172839506172839,59.1358024691358,0)" xlink:href="#ay"/><use transform="matrix(0.06172839506172839,0,0,0.06172839506172839,65.30864197530863,0)" xlink:href="#az"/></g><path fill="#333" d="M177-190C167-65 218 103 67 71c-23-6-38-20-44-43l32-5c15 47 100 32 89-28v-30C133-14 115 1 83 1 29 1 15-40 15-95c0-56 16-97 71-98 29-1 48 16 59 35 1-10 0-23 2-32h30zM94-22c36 0 50-32 50-73 0-42-14-75-50-75-39 0-46 34-46 75s6 73 46 73" id="aA"/><path fill="#333" d="M115-194c55 1 70 41 70 98S169 2 115 4C84 4 66-9 55-30l1 105H24l-1-265h31l2 30c10-21 28-34 59-34zm-8 174c40 0 45-34 45-75s-6-73-45-74c-42 0-51 32-51 76 0 43 10 73 51 73" id="aB"/><g id="m"><use transform="matrix(0.06172839506172839,0,0,0.06172839506172839,0,0)" xlink:href="#aA"/><use transform="matrix(0.06172839506172839,0,0,0.06172839506172839,12.345679012345679,0)" xlink:href="#al"/><use transform="matrix(0.06172839506172839,0,0,0.06172839506172839,19.691358024691358,0)" xlink:href="#F"/><use transform="matrix(0.06172839506172839,0,0,0.06172839506172839,32.03703703703704,0)" xlink:href="#G"/><use transform="matrix(0.06172839506172839,0,0,0.06172839506172839,44.382716049382715,0)" xlink:href="#aB"/></g><path fill="#333" d="M141-36C126-15 110 5 73 4 37 3 15-17 15-53c-1-64 63-63 125-63 3-35-9-54-41-54-24 1-41 7-42 31l-33-3c5-37 33-52 76-52 45 0 72 20 72 64v82c-1 20 7 32 28 27v20c-31 9-61-2-59-35zM48-53c0 20 12 33 32 33 41-3 63-29 60-74-43 2-92-5-92 41" id="aC"/><path fill="#333" d="M117-194c89-4 53 116 60 194h-32v-121c0-31-8-49-39-48C34-167 62-67 57 0H25l-1-190h30c1 10-1 24 2 32 11-22 29-35 61-36" id="aD"/><g id="n"><use transform="matrix(0.06172839506172839,0,0,0.06172839506172839,0,0)" xlink:href="#A"/><use transform="matrix(0.06172839506172839,0,0,0.06172839506172839,14.814814814814813,0)" xlink:href="#aB"/><use transform="matrix(0.06172839506172839,0,0,0.06172839506172839,27.160493827160494,0)" xlink:href="#aB"/><use transform="matrix(0.06172839506172839,0,0,0.06172839506172839,39.50617283950617,0)" xlink:href="#E"/><use transform="matrix(0.06172839506172839,0,0,0.06172839506172839,44.382716049382715,0)" xlink:href="#ax"/><use transform="matrix(0.06172839506172839,0,0,0.06172839506172839,49.25925925925926,0)" xlink:href="#D"/><use transform="matrix(0.06172839506172839,0,0,0.06172839506172839,60.37037037037037,0)" xlink:href="#aC"/><use transform="matrix(0.06172839506172839,0,0,0.06172839506172839,72.71604938271605,0)" xlink:href="#ay"/><use transform="matrix(0.06172839506172839,0,0,0.06172839506172839,78.88888888888889,0)" xlink:href="#ax"/><use transform="matrix(0.06172839506172839,0,0,0.06172839506172839,83.76543209876543,0)" xlink:href="#F"/><use transform="matrix(0.06172839506172839,0,0,0.06172839506172839,96.11111111111111,0)" xlink:href="#aD"/></g><path fill="#333" d="M30 0v-248h33v221h125V0H30" id="aE"/><g id="o"><use transform="matrix(0.06172839506172839,0,0,0.06172839506172839,0,0)" xlink:href="#aE"/><use transform="matrix(0.06172839506172839,0,0,0.06172839506172839,12.345679012345679,0)" xlink:href="#F"/><use transform="matrix(0.06172839506172839,0,0,0.06172839506172839,24.691358024691358,0)" xlink:href="#aC"/><use transform="matrix(0.06172839506172839,0,0,0.06172839506172839,37.03703703703704,0)" xlink:href="#H"/></g><path fill="#333" d="M160-131c35 5 61 23 61 61C221 17 115-2 30 0v-248c76 3 177-17 177 60 0 33-19 50-47 57zm-97-11c50-1 110 9 110-42 0-47-63-36-110-37v79zm0 115c55-2 124 14 124-45 0-56-70-42-124-44v89" id="aF"/><g id="p"><use transform="matrix(0.06172839506172839,0,0,0.06172839506172839,0,0)" xlink:href="#aF"/><use transform="matrix(0.06172839506172839,0,0,0.06172839506172839,14.814814814814813,0)" xlink:href="#aC"/><use transform="matrix(0.06172839506172839,0,0,0.06172839506172839,27.160493827160494,0)" xlink:href="#E"/><use transform="matrix(0.06172839506172839,0,0,0.06172839506172839,32.03703703703704,0)" xlink:href="#aC"/><use transform="matrix(0.06172839506172839,0,0,0.06172839506172839,44.382716049382715,0)" xlink:href="#aD"/><use transform="matrix(0.06172839506172839,0,0,0.06172839506172839,56.72839506172839,0)" xlink:href="#D"/><use transform="matrix(0.06172839506172839,0,0,0.06172839506172839,67.8395061728395,0)" xlink:href="#ak"/><use transform="matrix(0.06172839506172839,0,0,0.06172839506172839,80.18518518518519,0)" xlink:href="#al"/></g><path fill="#333" d="M108 0H70L1-190h34L89-25l56-165h34" id="aG"/><g id="q"><use transform="matrix(0.06172839506172839,0,0,0.06172839506172839,0,0)" xlink:href="#aG"/><use transform="matrix(0.06172839506172839,0,0,0.06172839506172839,11.11111111111111,0)" xlink:href="#ax"/><use transform="matrix(0.06172839506172839,0,0,0.06172839506172839,15.987654320987653,0)" xlink:href="#al"/><use transform="matrix(0.06172839506172839,0,0,0.06172839506172839,23.333333333333332,0)" xlink:href="#ay"/><use transform="matrix(0.06172839506172839,0,0,0.06172839506172839,29.50617283950617,0)" xlink:href="#G"/><use transform="matrix(0.06172839506172839,0,0,0.06172839506172839,41.85185185185185,0)" xlink:href="#aC"/><use transform="matrix(0.06172839506172839,0,0,0.06172839506172839,54.197530864197525,0)" xlink:href="#E"/></g><g id="r"><use transform="matrix(0.06172839506172839,0,0,0.06172839506172839,0,0)" xlink:href="#aB"/><use transform="matrix(0.06172839506172839,0,0,0.06172839506172839,12.345679012345679,0)" xlink:href="#al"/><use transform="matrix(0.06172839506172839,0,0,0.06172839506172839,19.691358024691358,0)" xlink:href="#ax"/><use transform="matrix(0.06172839506172839,0,0,0.06172839506172839,24.5679012345679,0)" xlink:href="#aG"/><use transform="matrix(0.06172839506172839,0,0,0.06172839506172839,35.67901234567901,0)" xlink:href="#aC"/><use transform="matrix(0.06172839506172839,0,0,0.06172839506172839,48.02469135802469,0)" xlink:href="#ay"/><use transform="matrix(0.06172839506172839,0,0,0.06172839506172839,54.19753086419753,0)" xlink:href="#ak"/></g><path fill="#333" d="M33 0v-248h34V0H33" id="aH"/><g id="s"><use transform="matrix(0.06172839506172839,0,0,0.06172839506172839,0,0)" xlink:href="#aH"/><use transform="matrix(0.06172839506172839,0,0,0.06172839506172839,6.172839506172839,0)" xlink:href="#aD"/><use transform="matrix(0.06172839506172839,0,0,0.06172839506172839,18.51851851851852,0)" xlink:href="#ay"/><use transform="matrix(0.06172839506172839,0,0,0.06172839506172839,24.691358024691358,0)" xlink:href="#ak"/><use transform="matrix(0.06172839506172839,0,0,0.06172839506172839,37.03703703703704,0)" xlink:href="#al"/><use transform="matrix(0.06172839506172839,0,0,0.06172839506172839,44.382716049382715,0)" xlink:href="#aD"/><use transform="matrix(0.06172839506172839,0,0,0.06172839506172839,56.72839506172839,0)" xlink:href="#ak"/><use transform="matrix(0.06172839506172839,0,0,0.06172839506172839,69.07407407407408,0)" xlink:href="#ay"/></g><path fill="#333" d="M206 0h-36l-40-164L89 0H53L-1-190h32L70-26l43-164h34l41 164 42-164h31" id="aI"/><g id="t"><use transform="matrix(0.06172839506172839,0,0,0.06172839506172839,0,0)" xlink:href="#aA"/><use transform="matrix(0.06172839506172839,0,0,0.06172839506172839,12.345679012345679,0)" xlink:href="#aC"/><use transform="matrix(0.06172839506172839,0,0,0.06172839506172839,24.691358024691358,0)" xlink:href="#ay"/><use transform="matrix(0.06172839506172839,0,0,0.06172839506172839,30.864197530864196,0)" xlink:href="#ak"/><use transform="matrix(0.06172839506172839,0,0,0.06172839506172839,43.20987654320987,0)" xlink:href="#aI"/><use transform="matrix(0.06172839506172839,0,0,0.06172839506172839,59.197530864197525,0)" xlink:href="#aC"/><use transform="matrix(0.06172839506172839,0,0,0.06172839506172839,71.5432098765432,0)" xlink:href="#az"/></g><path fill="#333" d="M210-169c-67 3-38 105-44 169h-31v-121c0-29-5-50-35-48C34-165 62-65 56 0H25l-1-190h30c1 10-1 24 2 32 10-44 99-50 107 0 11-21 27-35 58-36 85-2 47 119 55 194h-31v-121c0-29-5-49-35-48" id="aJ"/><path fill="#333" d="M9 0v-24l116-142H16v-24h144v24L44-24h123V0H9" id="aK"/><g id="u"><use transform="matrix(0.06172839506172839,0,0,0.06172839506172839,0,0)" xlink:href="#A"/><use transform="matrix(0.06172839506172839,0,0,0.06172839506172839,14.814814814814813,0)" xlink:href="#aJ"/><use transform="matrix(0.06172839506172839,0,0,0.06172839506172839,33.2716049382716,0)" xlink:href="#aC"/><use transform="matrix(0.06172839506172839,0,0,0.06172839506172839,45.61728395061728,0)" xlink:href="#aK"/><use transform="matrix(0.06172839506172839,0,0,0.06172839506172839,56.72839506172839,0)" xlink:href="#F"/><use transform="matrix(0.06172839506172839,0,0,0.06172839506172839,69.07407407407408,0)" xlink:href="#aD"/></g><path fill="#333" d="M30 0v-248h187v28H63v79h144v27H63v87h162V0H30" id="aL"/><path fill="#333" d="M212-179c-10-28-35-45-73-45-59 0-87 40-87 99 0 60 29 101 89 101 43 0 62-24 78-52l27 14C228-24 195 4 139 4 59 4 22-46 18-125c-6-104 99-153 187-111 19 9 31 26 39 46" id="aM"/><path fill="#333" d="M101-251c82-7 93 87 43 132L82-64C71-53 59-42 53-27h129V0H18c2-99 128-94 128-182 0-28-16-43-45-43s-46 15-49 41l-32-3c6-41 34-60 81-64" id="aN"/><g id="v"><use transform="matrix(0.06172839506172839,0,0,0.06172839506172839,0,0)" xlink:href="#aL"/><use transform="matrix(0.06172839506172839,0,0,0.06172839506172839,14.814814814814813,0)" xlink:href="#aM"/><use transform="matrix(0.06172839506172839,0,0,0.06172839506172839,30.80246913580247,0)" xlink:href="#aN"/></g><path fill="#333" d="M137 0h-34L2-248h35l83 218 83-218h36" id="aO"/><path fill="#333" d="M30-248c87 1 191-15 191 75 0 78-77 80-158 76V0H30v-248zm33 125c57 0 124 11 124-50 0-59-68-47-124-48v98" id="aP"/><g id="w"><use transform="matrix(0.06172839506172839,0,0,0.06172839506172839,0,0)" xlink:href="#aO"/><use transform="matrix(0.06172839506172839,0,0,0.06172839506172839,14.814814814814813,0)" xlink:href="#aP"/><use transform="matrix(0.06172839506172839,0,0,0.06172839506172839,29.629629629629626,0)" xlink:href="#aM"/></g><path fill="#333" d="M190 0L58-211 59 0H30v-248h39L202-35l-2-213h31V0h-41" id="aQ"/><path fill="#333" d="M127-220V0H93v-220H8v-28h204v28h-85" id="aR"/><g id="x"><use transform="matrix(0.06172839506172839,0,0,0.06172839506172839,0,0)" xlink:href="#aQ"/><use transform="matrix(0.06172839506172839,0,0,0.06172839506172839,15.987654320987653,0)" xlink:href="#A"/><use transform="matrix(0.06172839506172839,0,0,0.06172839506172839,29.1358024691358,0)" xlink:href="#aR"/></g><path fill="#333" d="M115-194c53 0 69 39 70 98 0 66-23 100-70 100C84 3 66-7 56-30L54 0H23l1-261h32v101c10-23 28-34 59-34zm-8 174c40 0 45-34 45-75 0-40-5-75-45-74-42 0-51 32-51 76 0 43 10 73 51 73" id="aS"/><path fill="#333" d="M143 0L79-87 56-68V0H24v-261h32v163l83-92h37l-77 82L181 0h-38" id="aT"/><g id="y"><use transform="matrix(0.06172839506172839,0,0,0.06172839506172839,0,0)" xlink:href="#aS"/><use transform="matrix(0.06172839506172839,0,0,0.06172839506172839,12.345679012345679,0)" xlink:href="#G"/><use transform="matrix(0.06172839506172839,0,0,0.06172839506172839,24.691358024691358,0)" xlink:href="#D"/><use transform="matrix(0.06172839506172839,0,0,0.06172839506172839,35.80246913580247,0)" xlink:href="#aT"/><use transform="matrix(0.06172839506172839,0,0,0.06172839506172839,46.91358024691358,0)" xlink:href="#ak"/><use transform="matrix(0.06172839506172839,0,0,0.06172839506172839,59.25925925925926,0)" xlink:href="#ay"/></g><path fill="#333" d="M233-177c-1 41-23 64-60 70L243 0h-38l-65-103H63V0H30v-248c88 3 205-21 203 71zM63-129c60-2 137 13 137-47 0-61-80-42-137-45v92" id="aU"/><path fill="#333" d="M140-251c81 0 123 46 123 126C263-46 219 4 140 4 59 4 17-45 17-125s42-126 123-126zm0 227c63 0 89-41 89-101s-29-99-89-99c-61 0-89 39-89 99S79-25 140-24" id="aV"/><g id="z"><use transform="matrix(0.06172839506172839,0,0,0.06172839506172839,0,0)" xlink:href="#aU"/><use transform="matrix(0.06172839506172839,0,0,0.06172839506172839,15.987654320987653,0)" xlink:href="#ak"/><use transform="matrix(0.06172839506172839,0,0,0.06172839506172839,28.333333333333332,0)" xlink:href="#aC"/><use transform="matrix(0.06172839506172839,0,0,0.06172839506172839,40.67901234567901,0)" xlink:href="#H"/><use transform="matrix(0.06172839506172839,0,0,0.06172839506172839,53.02469135802469,0)" xlink:href="#aV"/><use transform="matrix(0.06172839506172839,0,0,0.06172839506172839,70.30864197530863,0)" xlink:href="#aD"/><use transform="matrix(0.06172839506172839,0,0,0.06172839506172839,82.65432098765432,0)" xlink:href="#E"/><use transform="matrix(0.06172839506172839,0,0,0.06172839506172839,87.53086419753086,0)" xlink:href="#az"/></g></defs></g></svg>